<svg xmlns="http://www.w3.org/2000/svg" version="1.1" xmlns:xlink="http://www.w3.org/1999/xlink" xmlns:svgjs="http://svgjs.dev/svgjs" width="1500" height="568" viewBox="0 0 1500 568"><g transform="matrix(1,0,0,1,-0.9090909090909918,0.2966220652517677)"><svg viewBox="0 0 396 150" data-background-color="#ffffff" preserveAspectRatio="xMidYMid meet" height="568" width="1500" xmlns="http://www.w3.org/2000/svg" xmlns:xlink="http://www.w3.org/1999/xlink"><g id="tight-bounds" transform="matrix(1,0,0,1,0.2400000000000091,-0.07833329187987204)"><svg viewBox="0 0 395.52 150.15666658375974" height="150.15666658375974" width="395.52"><g><svg viewBox="0 0 663.0498031643513 251.72266439668545" height="150.15666658375974" width="395.52"><g transform="matrix(1,0,0,1,267.5298031643512,76.93970703451573)"><svg viewBox="0 0 395.52 97.84325032765398" height="97.84325032765398" width="395.52"><g id="textblocktransform"><svg viewBox="0 0 395.52 97.84325032765398" height="97.84325032765398" width="395.52" id="textblock"><g><svg viewBox="0 0 395.52 97.84325032765398" height="97.84325032765398" width="395.52"><g transform="matrix(1,0,0,1,0,0)"><svg width="395.52" viewBox="3 -37.5 152.59 37.75" height="97.84325032765398" data-palette-color="#000000"><path d="M9.55-22.95L9.55-22.95 9.55-1 13.3-0.75Q13.3-0.7 13.25 0L13.25 0 3.25 0.05Q3.25-0.4 3.3-0.65L3.3-0.65 5.9-1Q6.2-1 6.3-1.45L6.3-1.45 6.3-23.4Q6.2-23.75 6-23.75L6-23.75 3-23.85 3.05-24.55Q5.75-25 7.15-25 8.55-25 9.05-24.35 9.55-23.7 9.55-22.95ZM7.85-31.7Q6.85-31.7 6.3-32.33 5.75-32.95 5.75-33.98 5.75-35 6.33-35.63 6.9-36.25 7.9-36.25 8.9-36.25 9.53-35.63 10.15-35 10.15-33.93 10.15-32.85 9.5-32.27 8.85-31.7 7.85-31.7ZM20.8-33.95L18.15-34.25 18.2-35 30.35-35Q35.5-35 38.3-32.75 41.1-30.5 41.1-26.05L41.1-26.05Q41.1-23.15 38.87-20 36.65-16.85 34.7-15.95L34.7-15.95 43.95-0.9 46.4-0.75Q46.4-0.7 46.35 0L46.35 0 40.9 0.05 31.4-15.35 24.75-15.35 24.75-0.95 28.25-0.75Q28.25-0.7 28.2 0L28.2 0 18.15 0.05 18.2-0.65 20.8-1Q21.15-1.05 21.35-1.45L21.35-1.45 21.35-33.45Q21.2-33.9 20.8-33.95L20.8-33.95ZM30.1-34.25L30.1-34.25 24.75-34.25 24.75-16.1 33.3-16.1Q35.9-19.05 36.8-21.33 37.7-23.6 37.7-25.75L37.7-25.75Q37.7-29.95 35.75-32.1 33.8-34.25 30.1-34.25ZM50.55-23.95L47.95-24.2 47.9-24.95 54.65-25 54.65-7.6Q54.65-5.65 55.2-4.23 55.75-2.8 56.42-2.15 57.1-1.5 58-1.15L58-1.15Q59.4-0.65 60.35-0.75L60.35-0.75Q63.4-0.8 67.3-3.9L67.3-3.9 67.3-23.25Q67.09-23.85 66.45-23.95L66.45-23.95 63.84-24.2Q63.8-24.5 63.8-24.95L63.8-24.95 70.55-25 70.55-2.3Q70.65-1.05 71.34-1.05L71.34-1.05 74.34-0.9 74.3-0.15Q71.9 0.25 69.3 0.25L69.3 0.25Q68.7 0.2 68-0.43 67.3-1.05 67.3-2L67.3-2 67.3-2.9Q62.75 0.15 58.7 0.15L58.7 0.15Q57 0.15 54.7-0.7L54.7-0.7Q53.2-1.25 52.3-2.78 51.4-4.3 51.4-6.6L51.4-6.6 51.4-23.2Q51.4-23.45 51.12-23.68 50.85-23.9 50.55-23.95L50.55-23.95ZM84.44-35.45L84.44-35.45 84.44-23Q87.44-25.45 91.14-25.45L91.14-25.45Q94.54-25.45 97.54-23.35L97.54-23.35Q99.14-22.2 100.12-19.75 101.09-17.3 101.09-13.8L101.09-13.8Q101.09-7.15 97.79-3.8L97.79-3.8Q94.04 0 88.29 0L88.29 0Q86.14 0 84.02-0.35 81.89-0.7 81.19-1.15L81.19-1.15 81.19-35.85Q81.09-36.25 80.89-36.25L80.89-36.25 77.84-36.35 77.89-37.05Q81.04-37.5 82.22-37.5 83.39-37.5 83.92-36.85 84.44-36.2 84.44-35.45ZM84.44-22.05L84.44-22.05 84.44-0.9Q85.79-0.45 87.59-0.45L87.59-0.45Q92.49-0.45 95.17-3.9 97.84-7.35 97.84-13.55L97.84-13.55Q97.84-20.35 95.14-22.7L95.14-22.7Q93.04-24.55 90.29-24.55 87.54-24.55 84.44-22.05ZM108.34-11.5L108.34-11.5Q108.34-0.7 116.74-0.7L116.74-0.7Q118.94-0.7 121.44-1.18 123.94-1.65 124.64-2.05L124.64-2.05 124.99-1.55Q123.84-0.8 121.22-0.3 118.59 0.2 116.42 0.2 114.24 0.2 112.52-0.25 110.79-0.7 108.99-1.85 107.19-3 106.14-5.45 105.09-7.9 105.09-11.45L105.09-11.45Q105.09-18.05 108.49-21.55L108.49-21.55Q112.04-25.2 116.74-25.2 121.44-25.2 123.92-22.6 126.39-20 126.39-15.3L126.39-15.3Q126.39-14.3 126.24-13.15L126.24-13.15 108.39-13.15Q108.34-12.6 108.34-11.5ZM123.44-15.65L123.44-15.65Q123.44-19.4 121.79-21.78 120.14-24.15 117.29-24.15L117.29-24.15Q113.59-24.15 111.04-20.9L111.04-20.9Q108.99-18.35 108.49-14.1L108.49-14.1 123.39-14.1Q123.44-14.65 123.44-15.65ZM139.94 0L129.89 0.05 129.94-0.65 132.54-1Q132.99-1.05 132.99-1.7L132.99-1.7 132.99-23.35Q132.89-23.75 132.69-23.75L132.69-23.75 129.64-23.85 129.69-24.55Q132.84-25 133.94-25L133.94-25Q135.94-25 136.19-23.25L136.19-23.25 136.24-23.25 136.24-22.2Q140.34-25 144.09-25.15L144.09-25.15Q147.74-25.15 149.64-23.7L149.64-23.7Q150.49-23.05 151.16-21.68 151.84-20.3 151.84-18.4L151.84-18.4 151.84-1 155.59-0.75Q155.59-0.7 155.54 0L155.54 0 145.54 0.05Q145.54-0.4 145.59-0.65L145.59-0.65 148.19-1Q148.59-1.05 148.59-1.7L148.59-1.7 148.59-17.15Q148.59-19.15 148.06-20.55 147.54-21.95 146.89-22.6 146.24-23.25 145.29-23.6L145.29-23.6Q144.19-24 142.99-24L142.99-24Q139.99-23.95 136.24-21.65L136.24-21.65 136.24-1 139.99-0.75Q139.99-0.7 139.94 0L139.94 0Z" opacity="1" transform="matrix(1,0,0,1,0,0)" fill="#000000" class="wordmark-text-0" data-fill-palette-color="primary" id="text-0"></path></svg></g></svg></g></svg></g></svg></g><g><svg viewBox="0 0 244.43135999999996 251.72266439668545" height="251.72266439668545" width="244.43135999999996"><g><svg xmlns="http://www.w3.org/2000/svg" xmlns:xlink="http://www.w3.org/1999/xlink" version="1.1" x="0" y="0" viewBox="5.609351684292869 4.286087072815236 88.77964625201868 91.42791292718476" enable-background="new 0 0 100 100" xml:space="preserve" height="251.72266439668545" width="244.43135999999996" class="icon-icon-0" data-fill-palette-color="accent" id="icon-0"><path d="M93.065 78.999C92.563 78.649 92.427 78.23 92.254 77.699 92.039 77.041 91.773 76.22 90.681 75.636 90.026 75.283 88.661 74.551 88.679 73.983 88.684 73.815 88.851 73.352 90.279 72.698 92.63 71.618 92.886 70.972 92.977 70.239 93.005 70.009 93.017 69.913 93.26 69.715 93.763 69.306 93.951 68.747 93.764 68.221 93.409 67.223 91.85 66.775 90.321 67.314 89.873 67.472 89.774 67.486 89.362 66.837 89 66.268 88.453 65.408 87.001 65.408 86.565 65.408 86.082 65.483 85.522 65.636 84.512 65.913 83.78 66.14 83.236 66.31 82.627 66.499 82.223 66.624 82.038 66.624 81.981 66.624 81.952 66.608 81.635 66.19 81.341 65.802 80.911 65.405 80.456 64.984 79.615 64.206 78.663 63.325 78.291 62.284 77.591 60.324 77.225 60.034 74.724 59.465 72.632 58.988 72.169 57.827 71.847 56.577 71.583 55.556 70.63 53.157 67.478 52.953 66.399 52.884 66.09 52.61 66.068 52.548 66.076 52.47 66.307 52.224 66.81 52.105 68.29 51.757 69.785 51.769 70.506 52.146 70.711 52.253 70.891 52.443 71.066 52.625 71.353 52.927 71.679 53.271 72.172 53.271 72.633 53.271 73.07 52.971 73.591 52.3 74.413 51.239 74.609 50.304 74.738 49.685 74.804 49.366 74.862 49.091 74.986 48.994 75.706 48.429 76.19 47.911 76.844 45.501 77.516 43.024 76.311 42.177 75.248 41.428 75.096 41.321 74.941 41.212 74.789 41.096 74.239 40.679 73.453 40.376 72.621 40.054 71.471 39.61 70.167 39.107 69.201 38.211 68.425 37.49 67.079 36.779 65.653 36.026 64.01 35.158 61.965 34.078 61.712 33.297 61.551 32.802 61.652 32.563 61.771 32.285 62.139 31.417 61.875 30.901 60.639 30.078 60.069 29.698 59.824 29.132 59.908 28.395 60.053 27.144 61.058 25.933 61.871 25.628 62.955 25.221 66.074 23.605 66.177 21.58 66.23 20.543 65.511 19.648 64.042 18.92 63.361 18.583 61.288 17.555 61.165 17.212 61.169 17.169 61.236 17.041 61.286 16.948 61.407 16.719 61.573 16.405 61.647 15.967 61.76 15.297 61.568 14.902 61.387 14.688 61.236 14.508 60.954 14.293 60.478 14.293 59.861 14.293 59.085 14.663 58.174 15.393A2.4 2.4 0 0 1 57.721 15.697 4 4 0 0 1 57.675 15.194C57.653 14.78 57.632 14.389 57.382 14.139A0.7 0.7 0 0 0 56.867 13.934C56.662 13.934 56.46 14.007 56.245 14.084 56.012 14.167 55.747 14.263 55.483 14.263 55.216 14.263 54.805 14.18 54.316 13.462 54.001 12.999 53.545 12.754 52.997 12.754 52.568 12.754 52.151 12.901 51.817 13.019 51.658 13.075 51.439 13.152 51.417 13.164 51.252 13.104 51.232 13.014 51.234 12.934 51.243 12.673 51.534 12.313 52.058 12.162L52.367 12.073C53.639 11.709 55.082 11.297 55.242 10.174 55.353 9.387 54.888 8.834 53.856 8.531A7.3 7.3 0 0 0 51.765 8.24C51.459 8.24 51.183 8.256 50.942 8.269A7 7 0 0 1 50.363 8.284C50.378 8.127 50.403 7.93 50.432 7.715 50.601 6.437 50.688 5.495 50.26 5.007 49.923 4.622 49.371 4.618 48.731 5.091 48.407 5.33 48.091 5.446 47.767 5.446 47.153 5.446 46.629 5.022 46.317 4.769A3 3 0 0 0 46.077 4.587C45.288 4.086 44.513 4.235 44.202 4.853 44.013 5.228 44.039 5.687 44.267 5.995 44.481 6.285 44.806 6.554 45.151 6.838 45.349 7.003 45.695 7.289 45.889 7.518A15 15 0 0 1 45.433 7.355C44.929 7.169 44.408 6.978 43.99 6.958L43.882 6.956C43.05 6.956 42.494 7.419 42.09 7.757 41.93 7.89 41.711 8.073 41.717 8.097 41.634 8.044 41.463 7.765 41.351 7.581 40.995 6.999 40.507 6.203 39.553 6.203H39.551C38.783 6.231 38.376 6.824 38.049 7.3 37.686 7.826 37.537 8.017 37.195 7.926 36.697 7.799 36.153 7.838 35.623 7.915 35.379 7.951 35.13 7.988 34.862 7.988 34.523 7.988 34.048 7.935 33.372 7.525A2.9 2.9 0 0 0 31.803 7.076C31.467 7.076 31.145 7.126 30.833 7.174 30.663 7.2 30.49 7.227 30.31 7.246 29.537 7.323 28.814 6.891 28.176 6.509 27.578 6.151 27.049 5.855 26.548 5.962 25.827 6.119 25.569 6.73 25.38 7.175 25.087 7.867 24.95 7.924 24.391 7.796 23.308 7.55 22.214 7.799 21.246 8.068 20.619 8.243 20.027 8.408 19.405 8.408 17.734 8.408 15.588 9.143 14.718 10.013 14.472 10.258 14.314 10.292 14.178 10.292 13.85 10.292 13.349 10.061 12.622 9.708 11.873 9.346 11.151 9.296 10.467 9.361 10.148 9.391 9.821 9.41 9.519 9.339 7.827 8.941 6.101 9.774 5.753 11.117 5.41 12.437 5.673 13.414 6.631 14.385 7.322 15.087 8.434 15.499 9.415 15.863 10.208 16.157 11.108 16.491 11.294 16.849 11.768 17.761 12.071 19.542 12.071 20.368 12.071 20.923 12.529 21.684 13.283 22.873 13.712 23.549 14.198 24.315 14.294 24.697 14.423 25.214 14.245 25.564 13.892 26.188 13.76 26.422 13.62 26.671 13.492 26.95 13.399 27.153 13.304 27.375 13.205 27.606 12.829 28.486 12.402 29.483 11.81 30.046 11.611 30.235 11.449 30.38 11.313 30.502 10.869 30.899 10.624 31.119 10.359 31.76 10.174 32.208 9.124 32.775 8.532 32.924 8.002 33.058 7.642 33.408 7.568 33.86 7.513 34.195 7.579 34.86 8.634 35.538 9.626 36.176 9.833 36.909 9.327 37.988 8.619 39.498 8.599 39.858 9.889 41.471 10.372 42.074 10.79 42.432 11.096 42.694 11.557 43.089 11.591 43.126 11.536 43.452 11.413 44.186 11.874 44.736 12.179 45.099L12.219 45.147A10 10 0 0 1 11.759 45.287C10.995 45.508 10.045 45.783 9.949 46.601 9.844 47.496 11.162 48.204 13.387 49.082 14.501 49.523 16.205 50.311 17.333 50.831L17.946 51.113C18.942 51.57 20.094 51.482 22.568 51.209L23.042 51.156C23.392 51.118 23.752 51.069 24.12 51.019 24.986 50.902 25.881 50.78 26.773 50.78 28.649 50.78 30.072 51.354 31.251 52.588 33.772 55.228 35.237 57.111 35.731 58.346 36.049 59.143 36.485 59.393 36.869 59.614 37.185 59.796 37.458 59.952 37.76 60.488 38.193 61.258 38.648 61.473 39.049 61.665 39.426 61.845 39.752 62 40.179 62.742 40.505 63.309 41.026 63.609 41.686 63.609 42.505 63.609 43.382 63.155 44.086 62.79 44.349 62.653 44.708 62.468 44.787 62.451 44.844 62.454 44.959 62.5 45.07 62.544 45.33 62.646 45.686 62.784 46.165 62.784 46.955 62.784 47.842 62.396 48.876 61.597 49.755 60.918 50.222 60.776 50.459 60.776 50.742 60.776 50.896 61.023 51.179 61.586 51.232 61.69 51.284 61.796 51.34 61.898 51.49 62.177 51.696 62.462 51.914 62.765 52.505 63.585 53.175 64.515 52.919 65.538 52.567 66.946 52.55 67.88 53.552 68.181L53.747 68.209C54.014 68.209 54.283 68.068 54.655 67.874 55.26 67.558 56.055 67.169 56.459 67.589 56.752 67.895 56.828 68.243 56.909 68.613 57.05 69.259 57.243 70.141 58.788 70.242 60.132 70.329 60.186 70.419 60.45 70.848 60.52 70.962 60.6 71.092 60.702 71.239 60.913 71.539 61.221 71.705 61.568 71.705 62.336 71.705 63.143 70.952 64.197 69.739 64.504 69.387 65.072 69.296 65.674 69.2 66.383 69.087 67.117 68.97 67.584 68.391 67.853 68.059 68.385 67.853 68.972 67.853 69.719 67.853 70.476 68.18 71.102 68.774 71.815 69.449 71.699 70.1 71.564 70.854 71.452 71.479 71.325 72.189 71.895 72.7 71.88 72.829 71.572 73.166 71.388 73.367 70.954 73.841 70.464 74.379 70.511 75.027 70.536 75.38 70.716 75.694 71.046 75.964 71.874 76.642 72.502 76.681 72.96 76.708 73.332 76.73 73.501 76.741 73.771 77.063 74.117 77.478 74.659 77.775 75.232 78.088 76.465 78.763 76.864 79.107 76.645 79.692 75.925 81.613 76.253 83.035 77.855 84.939L78.27 85.429C79.589 86.981 80.116 87.657 79.874 88.808 79.66 89.824 79.957 90.884 80.244 91.911 80.443 92.623 80.632 93.296 80.613 93.852 80.593 94.46 80.746 94.936 81.066 95.266 81.35 95.559 81.748 95.714 82.216 95.714 82.559 95.714 82.934 95.626 83.219 95.479 83.316 95.428 83.485 95.318 83.708 95.169 84.527 94.623 86.234 93.487 87.593 93.487 87.94 93.487 88.229 93.56 88.478 93.712 90.301 94.822 91.5 95.026 92.196 94.408 92.741 93.923 92.379 92.892 91.763 91.376L91.629 91.048C91.606 90.87 91.837 90.235 92.007 89.772 92.516 88.379 93.214 86.471 92.133 85.389 91.417 84.674 91.07 84.165 90.816 83.794 90.594 83.469 90.419 83.213 90.131 83.029 90.049 82.976 89.964 82.793 89.994 82.683 90.016 82.6 90.184 82.541 90.473 82.533 90.798 82.533 91.112 82.636 91.415 82.735S92.033 82.938 92.361 82.938C92.918 82.938 93.37 82.647 93.743 82.049 94.73 80.473 94.648 80.102 93.065 78.999M92.896 81.52C92.634 81.939 92.458 81.939 92.362 81.939 92.193 81.939 91.977 81.868 91.726 81.786 91.368 81.669 90.962 81.535 90.396 81.535H90.387C89.37 81.569 89.098 82.166 89.029 82.421 88.886 82.943 89.134 83.581 89.593 83.874 89.707 83.947 89.82 84.111 89.989 84.359 90.249 84.74 90.642 85.316 91.425 86.096 92.055 86.727 91.484 88.288 91.067 89.429 90.735 90.338 90.515 90.939 90.688 91.382L90.835 91.752C91.014 92.19 91.47 93.315 91.464 93.704 91.193 93.832 90.6 93.833 88.996 92.858 88.593 92.612 88.12 92.487 87.592 92.487 85.931 92.487 84.055 93.736 83.153 94.337 82.971 94.458 82.835 94.551 82.757 94.591 82.564 94.692 82.078 94.875 81.782 94.57 81.628 94.411 81.603 94.109 81.611 93.883 81.633 93.174 81.416 92.395 81.205 91.641 80.95 90.731 80.687 89.789 80.851 89.013 81.204 87.336 80.339 86.32 79.031 84.781L78.62 84.296C77.089 82.476 77.073 81.398 77.58 80.044 78.143 78.542 76.738 77.773 75.712 77.212 75.245 76.956 74.763 76.692 74.538 76.423 73.993 75.769 73.454 75.735 73.02 75.71 72.627 75.687 72.256 75.663 71.678 75.19 71.604 75.128 71.513 75.038 71.507 74.955 71.491 74.735 71.858 74.335 72.125 74.042 72.576 73.548 73.331 72.722 72.581 72.006 72.42 71.853 72.446 71.591 72.547 71.03 72.693 70.213 72.893 69.093 71.788 68.048 70.975 67.278 69.975 66.854 68.971 66.854 68.076 66.854 67.267 67.194 66.806 67.763 66.579 68.042 66.063 68.125 65.515 68.213 64.799 68.327 63.987 68.457 63.442 69.083 62.508 70.159 61.87 70.71 61.522 70.665 61.432 70.538 61.364 70.425 61.302 70.325 60.831 69.558 60.493 69.35 58.852 69.244 58.059 69.192 58.015 68.993 57.885 68.399 57.788 67.956 57.668 67.405 57.18 66.897A1.6 1.6 0 0 0 55.987 66.393C55.33 66.393 54.672 66.737 54.191 66.987 54.049 67.061 53.864 67.159 53.763 67.196L53.74 67.184C53.733 67.176 53.593 66.967 53.889 65.781 54.257 64.305 53.371 63.077 52.725 62.18 52.529 61.907 52.345 61.655 52.218 61.421L52.071 61.135C51.783 60.562 51.387 59.776 50.459 59.776 49.871 59.776 49.174 60.104 48.265 60.806 47.425 61.455 46.718 61.784 46.165 61.784 45.875 61.784 45.651 61.696 45.435 61.612A1.9 1.9 0 0 0 44.803 61.452C44.494 61.452 44.15 61.63 43.626 61.901 43.05 62.2 42.261 62.609 41.686 62.609 41.385 62.609 41.194 62.5 41.046 62.244 40.464 61.231 39.917 60.972 39.479 60.763 39.135 60.599 38.909 60.492 38.631 59.998 38.194 59.223 37.736 58.959 37.367 58.747 37.044 58.561 36.848 58.449 36.659 57.976 36.109 56.601 34.621 54.67 31.973 51.898 30.593 50.454 28.941 49.782 26.772 49.782 25.812 49.782 24.883 49.908 23.984 50.03 23.625 50.079 23.273 50.127 22.932 50.164L22.457 50.216C20.205 50.465 19.149 50.566 18.361 50.206L17.751 49.925C16.614 49.4 14.895 48.606 13.689 48.128 11.371 47.213 10.992 46.794 10.941 46.719 10.953 46.614 11.322 46.456 12.036 46.25 12.362 46.156 12.67 46.066 12.919 45.942 13.219 45.792 13.32 45.575 13.353 45.421 13.432 45.04 13.184 44.745 12.945 44.459 12.67 44.131 12.479 43.879 12.522 43.619 12.67 42.729 12.242 42.362 11.745 41.937A7.4 7.4 0 0 1 10.669 40.849C9.673 39.605 9.673 39.605 10.231 38.416 10.947 36.89 10.581 35.604 9.174 34.7 8.634 34.353 8.543 34.089 8.554 34.024 8.558 34 8.617 33.937 8.776 33.897 9.4 33.74 10.898 33.08 11.283 32.145 11.46 31.716 11.57 31.617 11.979 31.251 12.121 31.124 12.291 30.972 12.499 30.774 13.24 30.069 13.71 28.971 14.124 28.003 14.22 27.78 14.311 27.566 14.401 27.37 14.516 27.118 14.644 26.894 14.763 26.683 15.124 26.045 15.496 25.385 15.264 24.457 15.13 23.918 14.643 23.151 14.128 22.34 13.707 21.677 13.071 20.674 13.071 20.37 13.071 19.442 12.754 17.491 12.181 16.39 11.818 15.691 10.866 15.337 9.763 14.928 8.88 14.6 7.88 14.229 7.344 13.685 6.638 12.97 6.469 12.343 6.722 11.371 6.932 10.559 8.135 10.04 9.289 10.315 9.7 10.411 10.14 10.399 10.562 10.359 10.958 10.319 11.316 10.189 12.186 10.61 13.06 11.035 13.624 11.295 14.178 11.295 14.638 11.295 15.034 11.113 15.425 10.723 16.044 10.103 17.878 9.41 19.404 9.41 20.163 9.41 20.85 9.218 21.514 9.033 22.413 8.783 23.298 8.576 24.167 8.772 24.373 8.819 24.558 8.842 24.734 8.842 25.759 8.842 26.084 8.074 26.299 7.566 26.473 7.155 26.564 6.983 26.772 6.94 26.947 6.94 27.327 7.168 27.662 7.368 28.389 7.804 29.314 8.361 30.415 8.241 30.611 8.22 30.801 8.191 30.986 8.162 31.693 8.053 32.274 8.027 32.852 8.379 33.536 8.795 34.174 8.988 34.862 8.988 35.18 8.988 35.476 8.946 35.766 8.905 36.166 8.847 36.58 8.801 36.945 8.894 37.082 8.93 37.217 8.948 37.347 8.948 38.129 8.948 38.541 8.348 38.872 7.866 39.152 7.459 39.34 7.211 39.604 7.201 39.945 7.201 40.238 7.68 40.497 8.102 40.79 8.58 41.093 9.075 41.684 9.075H41.687C42.103 9.047 42.422 8.781 42.731 8.523 43.081 8.231 43.411 7.956 43.938 7.956H43.943C44.208 7.969 44.696 8.148 45.089 8.293 45.565 8.468 45.975 8.619 46.284 8.619 46.628 8.619 46.798 8.438 46.87 8.329 47.449 7.441 46.49 6.647 45.79 6.067 45.507 5.833 45.214 5.59 45.082 5.415 45.074 5.394 45.076 5.328 45.148 5.273 45.192 5.273 45.319 5.288 45.543 5.43 45.579 5.453 45.627 5.494 45.689 5.544 46.05 5.836 46.8 6.444 47.769 6.444 48.307 6.444 48.831 6.259 49.327 5.894 49.422 5.824 49.494 5.782 49.544 5.757 49.635 6.133 49.503 7.13 49.443 7.581 49.409 7.836 49.379 8.066 49.365 8.244 49.34 8.553 49.414 8.802 49.583 8.986 49.828 9.251 50.179 9.286 50.489 9.286 50.637 9.286 50.808 9.277 51.001 9.265 51.226 9.252 51.482 9.238 51.768 9.238 52.423 9.238 52.998 9.318 53.578 9.488 54.302 9.701 54.272 9.908 54.255 10.031 54.187 10.512 52.978 10.857 52.096 11.11L51.783 11.2C50.898 11.456 50.262 12.156 50.239 12.901 50.221 13.449 50.544 13.91 51.082 14.104 51.38 14.209 51.762 14.099 52.153 13.961 52.665 13.78 53.209 13.605 53.494 14.024 54.054 14.846 54.723 15.263 55.487 15.263 55.925 15.263 56.307 15.126 56.587 15.025L56.664 14.998C56.671 15.081 56.676 15.173 56.68 15.248 56.707 15.769 56.759 16.737 57.62 16.737 57.953 16.737 58.318 16.563 58.803 16.174 59.795 15.38 60.308 15.294 60.482 15.294 60.533 15.294 60.6 15.301 60.628 15.334 60.664 15.376 60.712 15.522 60.665 15.8 60.618 16.079 60.51 16.283 60.405 16.481 60.261 16.753 60.082 17.092 60.215 17.503 60.406 18.096 61.135 18.593 63.603 19.816 64.681 20.35 65.212 20.926 65.182 21.528 65.118 22.802 62.729 24.238 61.524 24.69 60.261 25.164 59.093 26.773 58.92 28.279 58.792 29.386 59.208 30.321 60.09 30.908 61.013 31.523 60.967 31.631 60.856 31.893 60.71 32.236 60.491 32.754 60.767 33.605 61.146 34.771 63.112 35.809 65.193 36.908 66.498 37.597 67.848 38.31 68.528 38.941 69.634 39.969 71.033 40.509 72.267 40.985 73.032 41.28 73.753 41.559 74.191 41.89 74.353 42.013 74.517 42.129 74.679 42.243 75.7 42.961 76.373 43.436 75.885 45.236 75.271 47.501 74.875 47.811 74.351 48.223 73.963 48.528 73.867 48.989 73.764 49.477 73.64 50.069 73.487 50.806 72.805 51.684 72.359 52.261 72.179 52.268 72.177 52.268 72.113 52.268 71.898 52.041 71.795 51.934 71.586 51.713 71.325 51.44 70.974 51.256 70.014 50.755 68.319 50.721 66.586 51.129 65.627 51.355 65.02 51.957 65.076 52.627 65.112 53.066 65.466 53.822 67.418 53.948 69.827 54.103 70.623 55.816 70.883 56.824 71.279 58.362 71.993 59.864 74.506 60.436 76.759 60.949 76.804 61.076 77.355 62.617 77.809 63.889 78.903 64.902 79.782 65.715 80.204 66.106 80.603 66.475 80.884 66.844 81.214 67.279 81.474 67.621 82.044 67.621 82.382 67.621 82.769 67.502 83.539 67.262 84.075 67.095 84.797 66.87 85.792 66.598 86.258 66.471 86.667 66.406 87.007 66.406 87.91 66.406 88.195 66.853 88.525 67.372 88.814 67.825 89.173 68.39 89.957 68.39 90.174 68.39 90.403 68.345 90.66 68.255 91.702 67.886 92.702 68.198 92.829 68.554 92.871 68.671 92.806 68.8 92.637 68.938 92.081 69.39 92.03 69.809 91.991 70.115 91.951 70.445 91.9 70.855 89.869 71.787 88.405 72.459 87.712 73.146 87.686 73.951 87.649 75.139 89.194 75.969 90.215 76.516 90.953 76.912 91.111 77.396 91.31 78.008 91.503 78.603 91.723 79.278 92.499 79.819 93.515 80.531 93.515 80.531 92.896 81.52M65.159 27.093A1.4 1.4 0 0 0 64.786 27.043C64.117 27.043 63.616 27.501 63.213 27.87L63.044 28.023A1.9 1.9 0 0 0 62.386 29.481C62.389 30.142 62.717 30.8 63.287 31.289 63.544 31.509 63.822 31.621 64.114 31.621 64.996 31.621 65.597 30.618 66.036 29.886L66.143 29.707C66.436 29.227 66.482 28.645 66.269 28.112A1.7 1.7 0 0 0 65.159 27.093M65.29 29.186L65.179 29.371C64.955 29.745 64.43 30.621 64.115 30.621 64.056 30.621 63.987 30.572 63.938 30.531 63.589 30.231 63.387 29.847 63.386 29.477A0.9 0.9 0 0 1 63.703 28.776L63.888 28.609C64.178 28.344 64.505 28.045 64.786 28.045A0.4 0.4 0 0 1 64.899 28.061C65.089 28.112 65.254 28.271 65.34 28.484A0.78 0.78 0 0 1 65.29 29.186" fill="#49fff5" data-fill-palette-color="accent"></path></svg></g></svg></g></svg></g><defs></defs></svg><rect width="395.52" height="150.15666658375974" fill="none" stroke="none" visibility="hidden"></rect></g></svg></g></svg>